<svg width="24" height="24" viewBox="0 0 24 24" fill="none" xmlns="http://www.w3.org/2000/svg">
<path d="M19.4569 11.7975C19.435 11.7481 18.9056 10.5738 17.7287 9.39687C16.1606 7.82875 14.18 7 12 7C9.81999 7 7.83937 7.82875 6.27124 9.39687C5.09437 10.5738 4.56249 11.75 4.54312 11.7975C4.51469 11.8614 4.5 11.9306 4.5 12.0006C4.5 12.0706 4.51469 12.1398 4.54312 12.2037C4.56499 12.2531 5.09437 13.4269 6.27124 14.6038C7.83937 16.1713 9.81999 17 12 17C14.18 17 16.1606 16.1713 17.7287 14.6038C18.9056 13.4269 19.435 12.2531 19.4569 12.2037C19.4853 12.1398 19.5 12.0706 19.5 12.0006C19.5 11.9306 19.4853 11.8614 19.4569 11.7975ZM12 16C10.0762 16 8.39562 15.3006 7.00437 13.9219C6.43352 13.3542 5.94786 12.7068 5.56249 12C5.94776 11.2931 6.43343 10.6457 7.00437 10.0781C8.39562 8.69938 10.0762 8 12 8C13.9237 8 15.6044 8.69938 16.9956 10.0781C17.5676 10.6456 18.0543 11.2929 18.4406 12C17.99 12.8412 16.0269 16 12 16ZM12 9C11.4067 9 10.8266 9.17595 10.3333 9.50559C9.83994 9.83524 9.45542 10.3038 9.22836 10.8519C9.00129 11.4001 8.94188 12.0033 9.05764 12.5853C9.17339 13.1672 9.45912 13.7018 9.87867 14.1213C10.2982 14.5409 10.8328 14.8266 11.4147 14.9424C11.9967 15.0581 12.5999 14.9987 13.148 14.7716C13.6962 14.5446 14.1648 14.1601 14.4944 13.6667C14.824 13.1734 15 12.5933 15 12C14.9992 11.2046 14.6828 10.442 14.1204 9.87959C13.558 9.31716 12.7954 9.00083 12 9ZM12 14C11.6044 14 11.2178 13.8827 10.8889 13.6629C10.56 13.4432 10.3036 13.1308 10.1522 12.7654C10.0009 12.3999 9.96125 11.9978 10.0384 11.6098C10.1156 11.2219 10.3061 10.8655 10.5858 10.5858C10.8655 10.3061 11.2219 10.1156 11.6098 10.0384C11.9978 9.96126 12.3999 10.0009 12.7654 10.1522C13.1308 10.3036 13.4432 10.56 13.6629 10.8889C13.8827 11.2178 14 11.6044 14 12C14 12.5304 13.7893 13.0391 13.4142 13.4142C13.0391 13.7893 12.5304 14 12 14Z" fill="#FF7600"/>
</svg>
