<svg width="24" height="25" viewBox="0 0 24 25" fill="none" xmlns="http://www.w3.org/2000/svg">
<g clip-path="url(#clip0_3_3331)">
<path fill-rule="evenodd" clip-rule="evenodd" d="M14.407 18.0006C14.6065 18.2 14.8222 18.3782 15.051 18.534L13.0356 20.5494C13.0356 20.5494 13.0356 20.5494 13.0356 20.5494C12.4348 21.1501 11.4607 21.1502 10.8599 20.5495C10.8599 20.5495 10.8599 20.5495 10.8599 20.5495L8.94631 18.6358C9.22698 18.4597 9.4896 18.251 9.72902 18.0117L12.0736 15.6672L14.407 18.0006ZM7.84306 17.5326C7.45647 17.7147 7.03115 17.8108 6.59113 17.8108H6L9.79924 21.6101C10.9858 22.7966 12.9096 22.7966 14.0962 21.6101L17.9064 17.7999H17.545C17.0464 17.7999 16.5666 17.6765 16.1407 17.4443C15.8964 17.311 15.6698 17.1419 15.4675 16.9397L12.4677 13.94C12.2571 13.7288 11.89 13.7294 11.6795 13.94L8.66872 16.9507C8.42497 17.1943 8.1459 17.3899 7.84306 17.5326Z" fill="#FF7600"/>
<path fill-rule="evenodd" clip-rule="evenodd" d="M9.78138 6.98848C9.54196 6.74913 9.2793 6.54031 8.99859 6.36416L10.9122 4.45058C11.513 3.84978 12.487 3.84978 13.0878 4.45058L15.1032 6.46593C14.8744 6.6217 14.6588 6.7999 14.4593 6.9993L12.1257 9.33314L9.78138 6.98848ZM16.1929 7.55571C16.6189 7.32344 17.0986 7.20007 17.5973 7.20007H17.9586L14.1485 3.38992C12.9619 2.20334 11.0381 2.20334 9.85151 3.38992L6.05237 7.18906H6.6434C7.08344 7.18906 7.50877 7.28516 7.89536 7.46739C8.19817 7.61012 8.4772 7.8057 8.7209 8.04932L11.7317 11.0605C11.9485 11.2774 12.3026 11.2783 12.5199 11.0603L15.5197 8.06023C15.722 7.85804 15.9486 7.68896 16.1929 7.55571Z" fill="#FF7600"/>
<path fill-rule="evenodd" clip-rule="evenodd" d="M20.0495 11.4123C20.6502 12.0129 20.6503 12.987 20.0494 13.5879L18.2193 15.4179H17.5973C17.4538 15.4179 17.3059 15.3565 17.2051 15.2556L14.4493 12.5001L17.2046 9.74489C17.3054 9.64397 17.4538 9.58209 17.5973 9.58209H18.2193L20.0495 11.4123ZM18.8076 8.04908C18.7569 8.0694 18.7021 8.08209 18.6441 8.08209H17.5973C17.0561 8.08209 16.5263 8.30156 16.1439 8.68423L13.1441 11.6841C12.8634 11.9648 12.4946 12.1053 12.126 12.1053C11.7572 12.1053 11.3886 11.9648 11.1079 11.6843L8.0969 8.67331C7.71442 8.29064 7.18472 8.07118 6.64345 8.07118H5.35622C5.30138 8.07118 5.25002 8.0582 5.20157 8.03995L2.88993 10.3516C1.70336 11.5381 1.70336 13.4619 2.88993 14.6485L5.20148 16.9601C5.24992 16.9418 5.30138 16.9289 5.35622 16.9289H6.64345C7.18472 16.9289 7.71442 16.7094 8.0969 16.3267L11.1077 13.316C11.3797 13.0441 11.7529 12.9081 12.126 12.9081C12.4992 12.9081 12.8722 13.0441 13.1441 13.3162L16.1439 16.3157C16.5263 16.6985 17.0561 16.9179 17.5973 16.9179H18.6441C18.7022 16.9179 18.7569 16.9305 18.8077 16.9509L21.1101 14.6485C22.2967 13.4619 22.2967 11.5381 21.1101 10.3516L18.8076 8.04908ZM9.80229 12.5L7.03624 9.73397C6.93518 9.63286 6.7869 9.57118 6.64345 9.57118H5.79166L3.95059 11.4122C3.34992 12.0129 3.34974 12.9869 3.95059 13.5879L5.79157 15.4289H6.64345C6.7869 15.4289 6.93492 15.3674 7.03598 15.2663L9.80229 12.5Z" fill="#FF7600"/>
</g>
<defs>
<clipPath id="clip0_3_3331">
<rect width="20.0001" height="20" fill="white" transform="matrix(1 0 0 -1 2 22.5)"/>
</clipPath>
</defs>
</svg>
